PathFileType	4	(X/Y/Z)	AB11\squats_1.trc
DataRate	CameraRate	NumFrames	NumMarkers	Units	OrigDataRate	OrigDataStartFrame	OrigNumFrames
200.000000	200.000000	4	35	mm	200.000000	0	317
Frame#	Time	C7			LSHO			STRN			LASI			RASI			LPSI			RPSI			LGTR			RGTR			LTHC			LTHL			LTHR			LKNE			LMKNE			LSHC			LSHL			LSHR			LANK			LMANK			LMT1			LMT5			LCAL			RTHC			RTHL			RTHR			RKNE			RMKNE			RSHC			RSHL			RSHR			RANK			RMANK			RMT1			RMT5			RCAL			
		X1	Y1	Z1	X2	Y2	Z2	X3	Y3	Z3	X4	Y4	Z4	X5	Y5	Z5	X6	Y6	Z6	X7	Y7	Z7	X8	Y8	Z8	X9	Y9	Z9	X10	Y10	Z10	X11	Y11	Z11	X12	Y12	Z12	X13	Y13	Z13	X14	Y14	Z14	X15	Y15	Z15	X16	Y16	Z16	X17	Y17	Z17	X18	Y18	Z18	X19	Y19	Z19	X20	Y20	Z20	X21	Y21	Z21	X22	Y22	Z22	X23	Y23	Z23	X24	Y24	Z24	X25	Y25	Z25	X26	Y26	Z26	X27	Y27	Z27	X28	Y28	Z28	X29	Y29	Z29	X30	Y30	Z30	X31	Y31	Z31	X32	Y32	Z32	X33	Y33	Z33	X34	Y34	Z34	X35	Y35	Z35	

1	21.655	-2311.202487579119	1375.187087320361	2482.194055112549	-2238.552139765193	1353.120069152601	2350.398959410596	-2191.041011253339	1285.69982348095	2480.607254810991	-2239.844666490843	899.8176204783082	2336.338802340217	-2257.242488107555	904.3033737203599	2593.571746111588	-2442.145627163157	965.9256834985335	2413.758969908708	-2449.408036367187	963.4120806020521	2510.464761196487	-2317.115753625444	875.0209406629069	2262.45621160059	-2360.307604876614	875.6275450215854	2666.472471751151	-2359.399399171934	657.3075487282481	2260.848512212995	-2210.293355699756	615.1970216970468	2308.751756492453	-2382.64784961651	551.2735205201259	2325.280485308574	-2287.490980998181	453.5401105881871	2252.725401053047	-2280.490542295604	437.582898774215	2379.702216079035	-2347.596726467462	354.7128716890028	2223.494788906942	-2288.546015705781	218.0584441156425	2243.076790958914	-2386.372348210027	251.650675694755	2290.635902462499	-2349.385453282288	95.94379491751259	2215.563992353883	-2325.357197755105	100.6856674010681	2299.175701397532	-2204.218973543495	59.82795803913931	2271.128612916965	-2244.708241106593	52.93528668751924	2189.655217350186	-2417.161236612983	69.92655471665684	2261.150770819401	-2216.243482504483	575.8472336687211	2586.15557730171	-2327.025718967415	675.7341197354376	2683.182309835758	-2371.809333009893	598.3435672416006	2659.250886360793	-2295.125305688421	464.6256690931984	2684.495057394768	-2300.952932507905	420.7858112645723	2559.406327702132	-2283.301127105937	206.9394044316067	2679.693117745825	-2388.676584379642	215.99178535673	2668.800089712008	-2345.570104913258	288.0536723940285	2725.428267590235	-2350.074313708416	94.14494791761996	2731.461420547187	-2329.862499543246	91.55881472974886	2646.853988331157	-2202.784321394789	62.61154028019109	2687.731457600863	-2237.71487281926	50.96049349729968	2763.83365572822	-2412.293972808545	64.70176583477156	2677.346739084718	
2	21.66	-2310.037732625368	1373.976720086857	2482.731475117818	-2237.514461902288	1351.314946021078	2350.836423828271	-2190.341445227554	1283.667246066816	2480.933979933922	-2241.928793907507	898.3290102257213	2336.536923748449	-2259.053213629577	902.9863232919007	2593.601117036293	-2443.711232663741	965.5312588427392	2413.938859661801	-2450.906145551124	963.0551022438266	2510.652483090275	-2319.002451250231	874.1089886040513	2262.408196422707	-2362.008157661789	874.8954693171059	2666.662203240408	-2359.754255697984	655.9978079388213	2260.425393537888	-2210.2321459011	615.4202873357573	2308.521426229001	-2382.011275189885	549.739449664609	2324.587951725409	-2285.939563591658	453.0560435318574	2252.329457663652	-2279.050032422164	437.3487945520807	2379.215621311067	-2346.325593476485	354.4698293601884	2223.165818094207	-2288.042998081761	217.6292078497912	2242.958457896807	-2385.710490738683	251.687615151173	2290.351783035314	-2349.435110226875	95.92149306335662	2215.489614930873	-2325.421217818757	100.6912373801754	2299.182154355095	-2204.338457060529	59.90275679972621	2271.17319752076	-2244.767661701886	53.02913957226904	2189.68426162141	-2417.2448813113	69.83484023706522	2261.104320639944	-2216.152499237486	576.1169681329136	2586.091371972338	-2327.394019275148	675.1009380971655	2683.444340328106	-2371.482335062638	597.4077377713228	2659.872118018159	-2293.812117816754	464.3175229067375	2684.858543384009	-2300.059800575033	420.6757383489647	2559.906957546946	-2282.864868798354	206.6406152774331	2679.70109220308	-2388.229497397532	216.1306493477953	2669.151206438875	-2344.623131609315	287.8989943515581	2725.765279649238	-2350.157332720733	94.02568113171475	2731.479855979354	-2329.887507691551	91.5645667841239	2646.893923901232	-2202.797318269018	62.67786534087674	2687.704587688427	-2237.78453787715	50.96488935105166	2763.83361989991	-2412.328644857041	64.65799057979716	2677.380022256918	
3	21.665	-2308.868967100205	1372.753798047685	2483.273035816421	-2236.473539145717	1349.499565898678	2351.275028760816	-2189.640993629914	1281.623758814362	2481.261211467083	-2244.021371679409	896.8318993661341	2336.736524132139	-2260.870195051249	901.6618855889262	2593.628398987465	-2445.280705074463	965.1314261930714	2414.120707313444	-2452.407704616894	962.6941225714203	2510.841502172515	-2320.896874761708	873.1906739574204	2262.363391159556	-2363.711374107536	874.1634517319864	2666.854965596933	-2360.103452572888	654.682523027463	2259.999542048036	-2210.166408120438	615.6462366193955	2308.291667724109	-2381.366876092796	548.1987974047311	2323.890402335729	-2284.378565353808	452.5714099906328	2251.930020360066	-2277.597125686043	437.1135130524804	2378.726788031085	-2345.04640225244	354.2284212357224	2222.832178092798	-2287.536261291684	217.201359900828	2242.839149922856	-2385.045310050165	251.7280207585114	2290.064608025902	-2349.484778230628	95.89923587618458	2215.415187381227	-2325.484464559518	100.6982526852206	2299.189951575555	-2204.457969118223	59.97763108226707	2271.218651355429	-2244.826960113367	53.12538050096153	2189.713598652056	-2417.328712170636	69.74336620804738	2261.058342632914	-2216.061130847769	576.3851607033941	2586.029154280397	-2327.760266762128	674.4668157971471	2683.709601847745	-2371.151822747629	596.4679763296036	2660.496605279422	-2292.493383694903	464.008196511254	2685.226222277495	-2299.163944862977	420.5646014674682	2560.411063559633	-2282.425524952472	206.3416705820965	2679.710995186556	-2387.778722771212	216.2700089994903	2669.504788056784	-2343.672238007654	287.7435618874545	2726.104517188488	-2350.240389929565	93.90731261648968	2731.498197310814	-2329.912606895369	91.57086742642312	2646.934085706063	-2202.811583984832	62.74423411822132	2687.677926577624	-2237.853978266122	50.970487085203	2763.833130470875	-2412.363743895321	64.61489011024855	2677.41298984459	
4	21.67	-2307.69948772082	1371.510583173719	2483.816002234099	-2235.431315315747	1347.66951830625	2351.713407165993	-2188.942241517595	1279.564865126107	2481.587623249018	-2246.118907746838	895.3223681317498	2336.936407198536	-2262.689363537034	900.3270726096114	2593.653342224444	-2446.850981956348	964.7194265966893	2414.304403193157	-2453.909833858977	962.323069987111	2511.031476720419	-2322.796119520927	872.2613114234731	2262.322322578887	-2365.413597290952	873.4292431872251	2667.051263294446	-2360.442098961962	653.360993954455	2259.571727541083	-2210.094050041143	615.8729527639788	2308.064693195401	-2380.71102824411	546.6523391728422	2323.190644013927	-2282.807743398761	452.0865802785207	2251.527706930653	-2276.130582285479	436.8751202927992	2378.23742918667	-2343.758850168692	353.9896692242056	2222.4939607184	-2287.025298139285	216.7768362792532	2242.719374686548	-2384.376556784544	251.7729696491946	2289.77463963125	-2349.534208931038	95.87696223545782	2215.341351294445	-2325.546882469353	100.7073846936961	2299.198906852945	-2204.576956093413	60.05247070973572	2271.264813338407	-2244.885922838762	53.22436292492338	2189.7432250755	-2417.412034748676	69.65252557857835	2261.013286198918	-2215.967741827892	576.6494255248637	2585.969531495862	-2328.121258640432	673.8308208312794	2683.978411174987	-2370.815378016821	595.5241187023444	2661.12291667988	-2291.169237632558	463.6975039937737	2685.598318347038	-2298.26315274453	420.4502457058948	2560.91747982106	-2281.983024869413	206.0428860056126	2679.723523526273	-2387.323609555135	216.4096378990969	2669.859557048951	-2342.718247304082	287.5873676520371	2726.444771512127	-2350.322901454309	93.79090323353506	2731.516375635598	-2329.937721655915	91.57790681337653	2646.974297612119	-2202.827662466115	62.81031534155931	2687.651713967832	-2237.922734037281	50.97770208324796	2763.832210518552	-2412.399337435188	64.57274629151071	2677.445255521591	
